<?xml version="1.0" encoding="UTF-8"?>
<svg version="1.1" xmlns="http://www.w3.org/2000/svg" width="512" height="512">
<path d="M0 0 C14.52 0 29.04 0 44 0 C44 22.77 44 45.54 44 69 C55.22 69 66.44 69 78 69 C78 46.23 78 23.46 78 0 C92.85 0 107.7 0 123 0 C123 23.43 123 46.86 123 71 C129.93 71.495 129.93 71.495 137 72 C140.65879383 72.51905003 144.25002098 73.06926696 147.875 73.75 C148.81553223 73.9255542 149.75606445 74.1011084 150.72509766 74.28198242 C176.04545912 79.20598463 200.77124163 89.12668045 215.8125 111.25 C226.84140368 129.66618823 229.6274059 154.89911623 224.4375 175.6875 C219.40075603 192.45915786 210.75179438 205.20444586 195.99609375 214.6953125 C193.88644272 215.97687862 193.88644272 215.97687862 192 218 C193.13695312 218.3403125 194.27390625 218.680625 195.4453125 219.03125 C215.92351584 225.36634598 233.64410168 235.44152846 244 255 C248.93721448 266.49070379 251.32433216 277.57430355 252 290 C252.04253906 290.76570313 252.08507812 291.53140625 252.12890625 292.3203125 C252.77297692 316.96675026 246.99816967 344.34776413 230 363 C229.28457031 363.80695313 228.56914062 364.61390625 227.83203125 365.4453125 C204.52359357 390.31271583 167.43554547 396.45003573 135 399 C131.04 399 127.08 399 123 399 C123 419.13 123 439.26 123 460 C108.15 460 93.3 460 78 460 C77.67 440.53 77.34 421.06 77 401 C66.11 400.67 55.22 400.34 44 400 C44 419.8 44 439.6 44 460 C29.48 460 14.96 460 0 460 C0 439.87 0 419.74 0 399 C-29.04 399 -58.08 399 -88 399 C-86.700625 390.9975 -85.40125 382.995 -84.0625 374.75 C-83.65394775 372.22827148 -83.24539551 369.70654297 -82.82446289 367.10839844 C-82.49899518 365.10870206 -82.17340154 363.10902618 -81.84765625 361.109375 C-81.68003784 360.07184082 -81.51241943 359.03430664 -81.33972168 357.96533203 C-81.17742065 356.97098145 -81.01511963 355.97663086 -80.84790039 354.95214844 C-80.70800186 354.09055115 -80.56810333 353.22895386 -80.42396545 352.34124756 C-80.03557544 350.19645685 -79.55701845 348.10653558 -79 346 C-78.13834229 346.01047363 -77.27668457 346.02094727 -76.38891602 346.03173828 C-73.15162161 346.066092 -69.91442103 346.09103013 -66.67700195 346.10986328 C-65.28341591 346.1198393 -63.88985034 346.13342501 -62.49633789 346.15087891 C-47.89105971 346.75864575 -47.89105971 346.75864575 -35 341 C-32.30665559 335.82035601 -31.56391387 331.51468771 -31.60559082 325.67070007 C-31.59645416 324.45337172 -31.59645416 324.45337172 -31.58713293 323.21145087 C-31.57055373 320.50630136 -31.57527144 317.80162519 -31.58007812 315.09643555 C-31.57273479 313.15105706 -31.56414779 311.20568293 -31.55441284 309.26031494 C-31.53221463 303.9853942 -31.52926537 298.71062975 -31.53116035 293.43566871 C-31.53128015 289.02727368 -31.52271227 284.61891165 -31.51438284 280.21052581 C-31.49515437 269.80675062 -31.49226273 259.40305567 -31.49902344 248.99926758 C-31.50566209 238.2786158 -31.48280549 227.55830827 -31.44570971 216.83772629 C-31.41498559 207.62304762 -31.40365568 198.40847953 -31.40754652 189.19375068 C-31.40961142 183.69483908 -31.40417481 178.19619533 -31.37965393 172.69733238 C-31.35734505 167.5236732 -31.35929928 162.35057244 -31.37958145 157.1769104 C-31.38298429 155.28312049 -31.37793386 153.38929268 -31.36359787 151.49555397 C-31.07322781 137.45522261 -31.07322781 137.45522261 -37 125 C-39.31699747 122.88511499 -39.31699747 122.88511499 -41.9375 121.9375 C-42.75089844 121.57527344 -43.56429687 121.21304688 -44.40234375 120.83984375 C-49.92682619 119.05373289 -55.47742321 118.81459656 -61.2421875 118.68359375 C-61.92418213 118.66494263 -62.60617676 118.6462915 -63.30883789 118.6270752 C-65.83077347 118.55932045 -68.35289994 118.49882731 -70.875 118.4375 C-76.52625 118.293125 -82.1775 118.14875 -88 118 C-88 102.49 -88 86.98 -88 71 C-58.96 71 -29.92 71 0 71 C0 47.57 0 24.14 0 0 Z M45 121 C45 149.38 45 177.76 45 207 C61.09645731 207.93471375 61.09645731 207.93471375 77.125 207.75 C78.02549072 207.70262695 78.92598145 207.65525391 79.85375977 207.60644531 C98.16424218 206.4948694 116.65305569 203.75153161 132 193 C133.0725 192.2575 134.145 191.515 135.25 190.75 C142.60254886 183.39745114 145.90240877 175.03228534 146.375 164.8125 C146.12708625 154.86840408 143.1085261 145.8032116 136.51953125 138.28515625 C112.62551168 116.61383618 73.55663446 121 45 121 Z M45 252 C45 283.35 45 314.7 45 347 C102.69182502 349.00854183 102.69182502 349.00854183 154.375 325.25 C161.93690806 317.28437611 164.29149101 307.50772948 164.1484375 296.8359375 C163.61468272 286.63841198 159.50068023 277.10190988 152 270 C133.72791693 254.45985945 107.81931875 252.17462932 84.80273438 251.44238281 C82.79527041 251.37648604 80.78824042 251.29776537 78.78125 251.21875 C67.38301219 250.84467656 56.50379547 251.45220022 45 252 Z " fill="#F6921A" transform="translate(174,26)"/>
</svg>
